<svg width="52" height="29" viewBox="0 0 52 29" fill="none" xmlns="http://www.w3.org/2000/svg">
<g clip-path="url(#clip0)">
<path d="M29.3782 21.3632L40.926 25.5662C41.546 25.7919 42.3422 25.5338 43.1903 24.7469C44.0385 23.96 44.8147 22.599 45.3429 21.1478C46.3112 18.4873 46.4556 15.3899 44.8434 14.8032L33.4197 10.6453L34.3 8.22661L45.7237 12.3845C49.072 13.6032 49.1875 18.3016 47.8231 22.0506C46.4586 25.7995 43.3499 29.3244 40.0017 28.1058L28.4539 23.9027L28.4979 23.7818L29.3782 21.3632Z" fill="white"/>
<path d="M49.7716 23.0574L47.7906 22.3364L49.7716 23.0574Z" fill="white"/>
<path d="M49.7716 23.0574L47.7906 22.3364" stroke="white" stroke-width="3.10448" stroke-linecap="square"/>
<path d="M31.4314 23.1122L30.7711 22.8718L31.4314 23.1122Z" fill="white"/>
<path d="M31.4314 23.1122L30.7711 22.8718" stroke="white" stroke-width="3.8806" stroke-linecap="square"/>
<path d="M35.7576 11.2262L35.0973 10.9858L35.7576 11.2262Z" fill="white"/>
<path d="M35.7576 11.2262L35.0973 10.9858" stroke="white" stroke-width="3.8806" stroke-linecap="square"/>
<path d="M33.5944 17.1693L32.9341 16.929L33.5944 17.1693Z" fill="white"/>
<path d="M33.5944 17.1693L32.9341 16.929" stroke="white" stroke-width="3.8806" stroke-linecap="square"/>
<path d="M18.5025 20.868L19.418 18.3527L8.06865 14.2218C7.4238 13.9871 6.96207 13.2493 6.81239 12.0554C6.66273 10.8615 6.95413 9.25835 7.50344 7.74911C8.51053 4.98218 10.4661 2.41805 12.1428 3.02829L23.3632 7.11218L24.2787 4.59678L13.0583 0.512889C9.5761 -0.754528 6.34314 2.91143 4.92407 6.8103C3.50499 10.7092 3.62515 15.5956 7.10735 16.863L18.4567 20.9938L18.5025 20.868Z" fill="white"/>
<path d="M17.5336 19.1755L22.3403 5.96899L17.5336 19.1755Z" fill="white"/>
<path d="M17.5336 19.1755L22.3403 5.96899" stroke="white" stroke-width="3.10448" stroke-linecap="square"/>
<path d="M23.482 10.0255L25.7931 10.8667L23.482 10.0255Z" fill="white"/>
<path d="M23.482 10.0255L25.7931 10.8667" stroke="white" stroke-width="3.10448" stroke-linecap="square"/>
<path d="M21.319 15.9684L23.6301 16.8096L21.319 15.9684Z" fill="white"/>
<path d="M21.319 15.9684L23.6301 16.8096" stroke="white" stroke-width="3.10448" stroke-linecap="square"/>
<path d="M2.22838 5.75286L4.20935 6.47388L2.22838 5.75286Z" fill="white"/>
<path d="M2.22838 5.75286L4.20935 6.47388" stroke="white" stroke-width="3.10448" stroke-linecap="square"/>
</g>
<defs>
<clipPath id="clip0">
<rect width="52" height="28.8108" fill="white"/>
</clipPath>
</defs>
</svg>
